<svg width="512" height="505" viewBox="0 0 512 505" fill="none" xmlns="http://www.w3.org/2000/svg">
<g filter="url(#filter0_i_13_42)">
<path opacity="0.679275" d="M130.789 366.996C58.5561 366.996 -6.10352e-05 306.529 -6.10352e-05 231.94C-6.10352e-05 157.35 58.5561 96.8838 130.789 96.8838C203.021 96.8838 261.578 157.35 261.578 231.94C261.578 306.529 203.021 366.996 130.789 366.996Z" fill="#005B4B"/>
<path opacity="0.815384" d="M381.211 370.128C308.978 370.128 250.422 309.661 250.422 235.072C250.422 160.483 308.978 100.016 381.211 100.016C453.444 100.016 512 160.483 512 235.072C512 309.661 453.444 370.128 381.211 370.128Z" fill="#00C9B0"/>
<path opacity="0.724159" d="M251.477 300.442C331.821 300.442 396.952 233.186 396.952 150.221C396.952 67.2563 331.821 0 251.477 0C171.134 0 106.003 67.2563 106.003 150.221C106.003 233.186 171.134 300.442 251.477 300.442Z" fill="#EBA606"/>
<path d="M213.679 499.872C224.717 492.483 227.78 488.363 229.792 478.202C230.636 473.938 230.453 471.88 227.173 448.824C224.002 426.532 223.615 422.359 223.337 407.455C223.004 389.653 223.729 380.728 227.212 359.748C228.198 353.808 228.879 348.723 228.724 348.449C228.57 348.175 228.879 345.238 229.412 341.924C230.714 333.822 230.697 323.229 229.374 317.985C226.195 305.381 218.364 295.48 206.02 288.457C204.014 287.316 195.209 282.161 186.454 277.001C153.826 257.774 149.157 256.096 116.345 251.798C108.293 250.743 106.027 249.443 105.287 245.453C104.949 243.632 105.288 242.615 106.888 240.651L108.918 238.16L121.725 238.689C147.714 239.763 162.535 241.174 169.821 243.269C173.584 244.35 177.195 245.526 177.846 245.882C179.647 246.868 191.846 252.661 192.12 252.661C192.252 252.661 195.849 254.356 200.113 256.427C204.377 258.499 208.005 260.193 208.175 260.193C208.346 260.193 211.706 261.758 215.642 263.67C228.587 269.958 237.016 273.752 238.041 273.752C238.595 273.752 239.753 273.159 240.612 272.434C241.956 271.301 242.642 268.26 245.496 250.777C248.596 231.794 248.819 229.511 248.838 216.503C248.852 206.782 248.484 200.29 247.621 195.035C245.79 183.88 245.376 162.467 246.777 151.345C249.886 126.645 251.271 119.614 253.477 117.337C255.919 114.815 260.232 114.895 262.609 117.507C264.373 119.444 264.379 119.509 264.846 141.423C265.408 167.838 266.44 176.243 271.333 194.261C277.325 216.321 278.186 225.516 277.367 258.701C277.015 272.987 276.97 285.42 277.267 286.33C277.565 287.241 278.635 288.545 279.645 289.229C281.688 290.611 280.473 291.15 308.146 276.58C324.557 267.939 335.008 264.009 352.645 259.85C376.245 254.284 386.731 249.33 406.251 234.523C415.434 227.557 418.364 226.543 421.244 229.337C422.496 230.552 423.042 231.893 423.049 233.772C423.058 236.273 422.134 237.398 410.1 249.548C391.181 268.65 384.576 273.267 365.775 280.536C347.256 287.695 330.246 296.596 316.263 306.445C311.499 309.801 305.426 314.062 302.768 315.915C296.319 320.409 287.262 329.863 284.414 335.073C283.147 337.391 281.868 339.288 281.572 339.288C281.275 339.288 280.075 342.084 278.906 345.502C276.794 351.674 276.779 351.834 276.805 368.665C276.846 394.568 279.843 409.866 291.045 441.357C297.2 458.659 298.291 461.666 298.966 463.202C303.955 474.545 305.866 477.974 309.009 481.221C314.774 487.179 317.409 488.793 333.313 496.106C336.652 497.641 340.698 499.56 347.903 503.026L351.915 504.956L278.967 504.978L206.02 505L213.679 499.872V499.872Z" fill="#373743"/>
</g>
<defs>
<filter id="filter0_i_13_42" x="0" y="0" width="512" height="509" filterUnits="userSpaceOnUse" color-interpolation-filters="sRGB">
<feFlood flood-opacity="0" result="BackgroundImageFix"/>
<feBlend mode="normal" in="SourceGraphic" in2="BackgroundImageFix" result="shape"/>
<feColorMatrix in="SourceAlpha" type="matrix" values="0 0 0 0 0 0 0 0 0 0 0 0 0 0 0 0 0 0 127 0" result="hardAlpha"/>
<feOffset dy="4"/>
<feGaussianBlur stdDeviation="2"/>
<feComposite in2="hardAlpha" operator="arithmetic" k2="-1" k3="1"/>
<feColorMatrix type="matrix" values="0 0 0 0 0 0 0 0 0 0 0 0 0 0 0 0 0 0 0.25 0"/>
<feBlend mode="normal" in2="shape" result="effect1_innerShadow_13_42"/>
</filter>
</defs>
</svg>
